<svg height="656pt" viewBox="-97 -21 656 656.00007" width="656pt" xmlns="http://www.w3.org/2000/svg"><path d="m52.738281 615h346.859375c31.660156 0 57.816406-24.75 57.816406-55.191406v-420.703125c0-30.429688-26.15625-55.351563-57.816406-55.351563h-57.183594v-35.019531c.101563-2.605469-.859374-5.136719-2.65625-7.019531-1.800781-1.878906-4.285156-2.953125-6.894531-2.960938h-49.445312c-8.601563-22.5-31.597657-38.74999975-57.554688-38.74999975h-.195312c-25.273438-.25000025-48.0625 15.18359375-57.203125 38.74999975h-49.003906c-2.601563.011719-5.085938 1.082032-6.882813 2.960938-1.800781 1.886718-2.757813 4.414062-2.660156 7.019531v35.019531h-57.179688c-31.664062 0-57.820312 24.921875-57.820312 55.351563v420.703125c0 30.441406 26.15625 55.191406 57.820312 55.191406zm77.175781-556.246094h45.78125c4.5625-.007812 8.546876-3.097656 9.683594-7.515625 4.730469-18.398437 21.324219-31.253906 40.316406-31.234375h.128907c19.519531 0 36.5 12.976563 40.355469 30.847656.992187 4.609376 5.070312 7.902344 9.78125 7.902344h46.453124v67.5h-192.5zm-114.996093 80.351563c0-19.402344 17.1875-35.351563 37.820312-35.351563h57.179688v32.121094c0 5.523438 4.027343 10.378906 9.550781 10.378906h213.394531c5.523438 0 9.550781-4.855468 9.550781-10.378906v-32.121094h57.183594c20.632813 0 37.816406 15.949219 37.816406 35.351563v420.703125c0 19.40625-17.183593 35.191406-37.816406 35.191406h-346.859375c-20.632812 0-37.820312-15.785156-37.820312-35.191406zm0 0"/><path d="m133.988281 441.25c-5.523437 0-10 4.476562-10 10s4.476563 10 10 10h184.359375c5.523438 0 10-4.476562 10-10s-4.476562-10-10-10zm0 0"/><path d="m96.488281 518.75h259.359375c5.523438 0 10-4.476562 10-10s-4.476562-10-10-10h-259.359375c-5.523437 0-10 4.476562-10 10s4.476563 10 10 10zm0 0"/><path d="m111.636719 375h229.0625c5.523437 0 10-4.476562 10-10 0-5.519531-4.476563-10-10-10h-18.285157v-131.09375c.066407-2.640625-.929687-5.199219-2.765624-7.109375-1.832032-1.902344-4.347657-3-6.992188-3.046875h-37.984375c-2.640625.046875-5.15625 1.144531-6.988281 3.046875-1.832032 1.910156-2.828125 4.46875-2.769532 7.109375v131.09375h-6.25v-73.464844c-.214843-5.675781-4.828124-10.191406-10.507812-10.285156h-37.980469c-5.632812.113281-10.164062 4.65625-10.261719 10.285156v73.464844h-6.25v-104.035156c-.011718-2.625-1.078124-5.132813-2.960937-6.960938-1.886719-1.824218-4.425781-2.820312-7.046875-2.753906h-37.984375c-2.566406-.042969-5.042969.972656-6.839844 2.8125-1.796875 1.835938-2.757812 4.332031-2.65625 6.902344v104.035156h-15.007812v-155.375c0-5.523438-4.480469-10-10-10-5.523438 0-10 4.476562-10 10v165.746094c0 5.523437 4.941406 9.628906 10.46875 9.628906zm173.277343-141.25h17.5v121.25h-17.5zm-65 57.5h18.75v63.75h-18.75zm-63.75-30h17.5v93.75h-17.5zm0 0"/></svg>