<svg height="480pt" viewBox="-17 0 480 480" width="480pt" xmlns="http://www.w3.org/2000/svg"><path d="m445.226562 257.941406-29.226562-25.195312v-208.746094c-.015625-13.25-10.75-23.984375-24-24h-368c-13.25.015625-23.984375 10.75-24 24v432c.015625 13.25 10.75 23.984375 24 24h368c13.25-.015625 23.984375-10.75 24-24v-202.125l18.773438 16.183594zm-45.226562-38.988281-105.503906-90.953125h105.503906zm-376-202.953125h368c4.417969.003906 7.996094 3.582031 8 8v88h-124.066406l-39.34375-33.917969c2.210937-4.367187 3.378906-9.1875 3.410156-14.082031.054688-14.800781-10.007812-27.722656-24.371094-31.292969-14.359375-3.570312-29.304687 3.132813-36.1875 16.234375-6.882812 13.101563-3.921875 29.210938 7.167969 39.007813 11.09375 9.800781 27.441406 10.753906 39.597656 2.308593l25.21875 21.742188h-43.425781c-13.25.015625-23.984375 10.75-24 24v96c-.003906 4.417969-3.582031 7.996094-8 8h-24c-4.417969-.003906-7.996094-3.582031-8-8v-96c0-13.253906-10.746094-24-24-24s-24 10.746094-24 24v152c-.003906 4.417969-3.582031 7.996094-8 8h-24c-4.417969-.003906-7.996094-3.582031-8-8v-152c-.015625-13.25-10.75-23.984375-24-24h-16v-88c.003906-4.417969 3.582031-7.996094 8-8zm189.226562 41.941406-10.453124 12.117188 10.4375 8.996094c-1.671876.605468-3.433594.925781-5.210938.945312-6.820312.054688-12.941406-4.1875-15.28125-10.59375-2.34375-6.40625-.402344-13.59375 4.847656-17.949219s12.671875-4.941406 18.539063-1.457031c5.863281 3.480469 8.90625 10.277344 7.59375 16.96875zm186.773438 398.058594c-.003906 4.417969-3.582031 7.996094-8 8h-368c-4.417969-.003906-7.996094-3.582031-8-8v-328h16c4.417969.003906 7.996094 3.582031 8 8v152c.015625 13.25 10.75 23.984375 24 24h24c13.25-.015625 23.984375-10.75 24-24v-152c0-4.417969 3.582031-8 8-8s8 3.582031 8 8v96c.015625 13.25 10.75 23.984375 24 24h24c13.25-.015625 23.984375-10.75 24-24v-96c.003906-4.417969 3.582031-7.996094 8-8h61.984375l130.015625 112.082031zm0 0"/></svg>