<svg height="475pt" viewBox="-12 0 475 475.76657" width="475pt" xmlns="http://www.w3.org/2000/svg"><path d="m384.253906 304.1875c-3.902344-3.902344-10.234375-3.902344-14.140625 0l-45.316406 45.324219c-28.625 29.0625-28.625 75.722656 0 104.785156l.117187.113281c14.070313 13.707032 32.941407 21.371094 52.582032 21.355469 29.808594-.222656 56.582031-18.285156 67.949218-45.839844 11.367188-27.558593 5.113282-59.242187-15.867187-80.417969zm31.179688 135.96875c-20.726563 20.726562-55.054688 20.691406-76.558594-.058594-20.675781-20.742187-20.65625-55.730468.058594-76.445312l38.25-38.25 38.25 38.25c20.734375 20.734375 20.734375 55.769531 0 76.503906zm0 0"/><path d="m353.953125 227.617188-150.65625-150.660157v-22.222656c-.128906-30.265625-24.699219-54.734375-54.96875-54.734375-30.265625 0-54.835937 24.46875-54.964844 54.734375v84.125l-70.375 70.371094c-30.140625 30.207031-30.140625 79.109375 0 109.316406l72.433594 72.433594c30.207031 30.136719 79.105469 30.136719 109.3125 0l149.21875-149.222657c3.90625-3.902343 3.90625-10.234374 0-14.140624zm-162.410156-28.480469c12.535156 0 22.699219 10.164062 22.699219 22.699219 0 12.539062-10.164063 22.703124-22.699219 22.703124-12.539063 0-22.699219-10.164062-22.699219-22.703124.015625-12.527344 10.167969-22.683594 22.699219-22.699219zm-78.183594-144.398438c.101563-19.238281 15.726563-34.78125 34.96875-34.78125 19.238281 0 34.863281 15.542969 34.964844 34.78125v3.199219c-3.769531-1.660156-8.171875-.832031-11.085938 2.078125l-58.847656 58.847656zm77.234375 322.097657c-22.390625 22.34375-58.640625 22.34375-81.03125 0l-72.433594-72.433594c-22.339844-22.390625-22.339844-58.640625 0-81.03125l142.148438-142.148438 4.015625 4.019532v94.699218c-21.234375 4.171875-35.996094 23.566406-34.359375 45.148438 1.640625 21.578125 19.15625 38.523437 40.777344 39.445312 21.625.917969 40.519531-14.476562 43.984374-35.839844 3.464844-21.363281-9.597656-41.941406-30.402343-47.902343v-75.550781l129.445312 129.445312zm0 0"/></svg>