<svg height="511pt" viewBox="0 0 511.99907 511" width="511pt" xmlns="http://www.w3.org/2000/svg"><path d="m320.929688 5.914062c-39.332032-10.347656-73.390626-5.753906-97.113282 12.855469l-.125-.679687-76.894531 14.546875c-61.21875 11.578125-107.867187 60-113.433594 117.746093-1.625 16.855469-.136719 33.335938 4.273438 48.824219l-13.105469 13.015625c-23.753906 23.753906-30.542969 60.75-19.113281 104.171875 10.679687 40.578125 36.296875 82.664063 72.132812 118.5 35.832031 35.835938 77.917969 61.453125 118.5 72.132813 36.878907 9.707031 77.035157 7.976562 104.125-19.070313l65.761719-64.710937v13.167968c0 45.425782 39.308594 82.605469 86.324219 74.964844 36.859375-5.996094 59.632812-40.875 59.632812-78.171875 0-8.226562 0-185.730469 0-195.4375 2.003907-52.640625-25.070312-112.328125-72.46875-159.722656-35.835937-35.835937-77.917969-61.453125-118.496093-72.132813zm-257.714844 147.347657c4.296875-44.554688 40.960937-82.039063 89.15625-91.15625l28.820312-5.453125-117.957031 117.136718c-.675781-6.707031-.691406-13.570312-.019531-20.527343zm215.886718 313.359375-.085937.082031c-34.484375 34.488281-117.035156 10.207031-180.257813-53.015625-32.140624-32.140625-54.988281-69.402344-64.335937-104.925781-8.601563-32.679688-4.582031-59.433594 11.277344-75.292969l4.675781-4.644531c4.347656 7.332031 9.46875 14.269531 15.335938 20.730469 22.449218 24.722656 53.839843 39.582031 87 41.421874 2.15625 6.214844 5.710937 12.054688 10.667968 17.007813 17.539063 17.542969 46.078125 17.542969 63.621094 0 17.539062-17.539063 17.539062-46.078125 0-63.617187-17.539062-17.542969-46.082031-17.542969-63.621094 0-4.839844 4.835937-8.335937 10.515624-10.503906 16.566406-24.773438-1.757813-48.148438-13.027344-64.960938-31.542969-6.242187-6.871094-11.378906-14.46875-15.347656-22.601563l119.699219-118.867187c-.148437 12.472656 1.625 25.839844 5.394531 39.867187 10.617188 39.523438 36.226563 81.054688 72.113282 116.9375l82.855468 82.855469c8.460938 8.460938 13.3125 20.078125 13.3125 31.867188v21.722656zm-94.519531-201.046875c5.859375-5.859375 15.347657-5.863281 21.207031 0 5.847657 5.84375 5.847657 15.359375.003907 21.207031-5.851563 5.847656-15.363281 5.847656-21.210938 0-5.859375-5.863281-5.859375-15.347656 0-21.207031zm297.324219 167.632812c0 21.351563-11.835938 44.890625-34.457031 48.570313-28.316407 4.605468-51.519531-18.003906-51.519531-45.359375v-76.96875c0-19.6875-8.054688-39.03125-22.097657-53.074219 0 0-90.609375-90.824219-94.25-94.890625h161.199219c10.949219 0 20.648438 3.910156 28.058594 11.308594 8.425781 8.410156 13.0625 20.398437 13.0625 33.75v176.664062zm-41.105469-251.714843c-.035156 0-184.71875 0-184.71875 0-36.078125-53.199219-45.105469-108.269532-18.121093-135.257813 34.492187-34.484375 117.035156-10.203125 180.261718 53.019531 27.214844 27.214844 47.117188 59.566406 56.925782 91.054688-10.289063-5.753906-22.042969-8.816406-34.347657-8.816406zm0 0"/><path d="m424.921875 331.449219h29.992187v104.96875h-29.992187zm0 0"/></svg>